<?xml version="1.0" encoding="UTF-8"?>
<svg version="1.1" xmlns="http://www.w3.org/2000/svg" width="1042" height="788">
<path d="M0 0 C104.05039933 -0.84695833 104.05039933 -0.84695833 147.56054688 -1.02539062 C157.51880618 -1.06650278 167.47705855 -1.108932 177.43530273 -1.15356445 C178.68331883 -1.15910318 179.93133493 -1.1646419 181.2171697 -1.17034847 C201.33693603 -1.26155889 221.45543546 -1.42704605 241.57445183 -1.62020872 C262.23901094 -1.81694687 282.90290921 -1.93330827 303.56836635 -1.97585839 C316.30968785 -2.00460223 329.04742971 -2.09519799 341.78764848 -2.2662458 C350.53730653 -2.37769648 359.28512834 -2.41070562 368.03544381 -2.38352893 C373.07733388 -2.3701406 378.11299608 -2.38988149 383.15376282 -2.50331497 C416.88989383 -3.22530212 416.88989383 -3.22530212 427.91891557 7.28872091 C431.2503505 10.83001416 434.26656042 14.48206099 437.1187197 18.41829741 C440.92992727 23.64846138 445.31794396 28.4714199 449.9375 33 C450.60523438 33.66 451.27296875 34.32 451.9609375 35 C452.63382812 35.66 453.30671875 36.32 454 37 C458.60802955 41.51975312 463.01017797 46.10932227 467.22265625 51 C470.32386585 54.48971278 473.66834132 57.7321662 477 61 C481.60802955 65.51975312 486.01017797 70.10932227 490.22265625 75 C493.32386585 78.48971278 496.66834132 81.7321662 500 85 C504.60802955 89.51975312 509.01017797 94.10932227 513.22265625 99 C516.32386585 102.48971278 519.66834132 105.7321662 523 109 C527.61825953 113.52978713 532.0319728 118.12959484 536.25390625 123.03125 C539.18612958 126.33738101 542.34410669 129.40917665 545.5 132.5 C549.29282035 136.21461787 552.9989289 139.94037034 556.46484375 143.96484375 C560.12699052 148.21210989 564.06091607 152.13706419 568.0625 156.0625 C569.43089296 157.40500094 570.79681236 158.75002814 572.16015625 160.09765625 C572.75449463 160.68039307 573.34883301 161.26312988 573.96118164 161.86352539 C576.76171548 164.79820048 579.36005554 167.92006479 582 171 C582.33 114.57 582.66 58.14 583 0 C732.16 0 881.32 0 1035 0 C1035 69.3 1035 138.6 1035 210 C1014.37195259 215.15701185 993.70669272 220.16843837 973 225 C972.505 500.22 972.505 500.22 972 781 C919.53 781.66 867.06 782.32 813 783 C788.22099609 783.43699219 788.22099609 783.43699219 762.94140625 783.8828125 C742.64648437 784.02734375 742.64648437 784.02734375 733.12182617 784.05419922 C726.51776478 784.08382453 719.92261557 784.20079915 713.32104492 784.37841797 C652.51843604 785.96420793 652.51843604 785.96420793 636.17711926 771.86668968 C629.51645581 765.53929714 624.1270187 758.36905718 619.13383961 750.69091702 C614.70351749 744.08389165 608.68479786 738.5458111 603.06445312 732.96679688 C602.30414291 732.20794693 601.5438327 731.44909698 600.76048279 730.66725159 C599.12256322 729.03311376 597.48349026 727.40013132 595.84336853 725.76820374 C593.24249653 723.1801881 590.64484239 720.58898042 588.04797363 717.99694824 C582.53478895 712.49514734 577.01768776 706.99728433 571.5 701.5 C565.10214465 695.12580278 558.70593671 688.74997057 552.31394958 682.36988831 C549.76412767 679.82651294 547.21129499 677.28618668 544.6583252 674.74597168 C543.08391666 673.17519825 541.50964981 671.6042828 539.93554688 670.03320312 C538.88173073 668.98713646 538.88173073 668.98713646 537.80662537 667.91993713 C537.14240067 667.25578293 536.47817596 666.59162872 535.79382324 665.90734863 C535.22679436 665.34254036 534.65976547 664.77773209 534.07555389 664.19580841 C530.95005568 660.88922347 527.99617737 657.42420271 525 654 C511.14 640.14 497.28 626.28 483 612 C482.67 667.77 482.34 723.54 482 781 C323.93 781 165.86 781 3 781 C3 715 3 649 3 581 C25.77 575.39 48.54 569.78 72 564 C72 452.46 72 340.92 72 226 C48.24 221.05 24.48 216.1 0 211 C0 141.37 0 71.74 0 0 Z " fill="#013369" transform="translate(4,5)"/>
<path d="M0 0 C104.05039933 -0.84695833 104.05039933 -0.84695833 147.56054688 -1.02539062 C157.51880618 -1.06650278 167.47705855 -1.108932 177.43530273 -1.15356445 C178.68331883 -1.15910318 179.93133493 -1.1646419 181.2171697 -1.17034847 C201.33693603 -1.26155889 221.45543546 -1.42704605 241.57445183 -1.62020872 C262.23901094 -1.81694687 282.90290921 -1.93330827 303.56836635 -1.97585839 C316.30968785 -2.00460223 329.04742971 -2.09519799 341.78764848 -2.2662458 C350.53730653 -2.37769648 359.28512834 -2.41070562 368.03544381 -2.38352893 C373.07733388 -2.3701406 378.11299608 -2.38988149 383.15376282 -2.50331497 C416.88989383 -3.22530212 416.88989383 -3.22530212 427.91891557 7.28872091 C431.2503505 10.83001416 434.26656042 14.48206099 437.1187197 18.41829741 C440.92992727 23.64846138 445.31794396 28.4714199 449.9375 33 C450.60523438 33.66 451.27296875 34.32 451.9609375 35 C452.63382812 35.66 453.30671875 36.32 454 37 C458.60802955 41.51975312 463.01017797 46.10932227 467.22265625 51 C470.32386585 54.48971278 473.66834132 57.7321662 477 61 C481.60802955 65.51975312 486.01017797 70.10932227 490.22265625 75 C493.32386585 78.48971278 496.66834132 81.7321662 500 85 C504.60802955 89.51975312 509.01017797 94.10932227 513.22265625 99 C516.32386585 102.48971278 519.66834132 105.7321662 523 109 C527.61825953 113.52978713 532.0319728 118.12959484 536.25390625 123.03125 C539.18612958 126.33738101 542.34410669 129.40917665 545.5 132.5 C549.29282035 136.21461787 552.9989289 139.94037034 556.46484375 143.96484375 C560.12699052 148.21210989 564.06091607 152.13706419 568.0625 156.0625 C569.43089296 157.40500094 570.79681236 158.75002814 572.16015625 160.09765625 C572.75449463 160.68039307 573.34883301 161.26312988 573.96118164 161.86352539 C576.76171548 164.79820048 579.36005554 167.92006479 582 171 C582.33 114.57 582.66 58.14 583 0 C732.16 0 881.32 0 1035 0 C1035 69.3 1035 138.6 1035 210 C1014.37195259 215.15701185 993.70669272 220.16843837 973 225 C972.505 500.22 972.505 500.22 972 781 C919.53 781.66 867.06 782.32 813 783 C788.22099609 783.43699219 788.22099609 783.43699219 762.94140625 783.8828125 C742.64648437 784.02734375 742.64648437 784.02734375 733.12182617 784.05419922 C726.51776478 784.08382453 719.92261557 784.20079915 713.32104492 784.37841797 C652.51843604 785.96420793 652.51843604 785.96420793 636.17711926 771.86668968 C629.51645581 765.53929714 624.1270187 758.36905718 619.13383961 750.69091702 C614.70351749 744.08389165 608.68479786 738.5458111 603.06445312 732.96679688 C602.30414291 732.20794693 601.5438327 731.44909698 600.76048279 730.66725159 C599.12256322 729.03311376 597.48349026 727.40013132 595.84336853 725.76820374 C593.24249653 723.1801881 590.64484239 720.58898042 588.04797363 717.99694824 C582.53478895 712.49514734 577.01768776 706.99728433 571.5 701.5 C565.10214465 695.12580278 558.70593671 688.74997057 552.31394958 682.36988831 C549.76412767 679.82651294 547.21129499 677.28618668 544.6583252 674.74597168 C543.08391666 673.17519825 541.50964981 671.6042828 539.93554688 670.03320312 C538.88173073 668.98713646 538.88173073 668.98713646 537.80662537 667.91993713 C537.14240067 667.25578293 536.47817596 666.59162872 535.79382324 665.90734863 C535.22679436 665.34254036 534.65976547 664.77773209 534.07555389 664.19580841 C530.95005568 660.88922347 527.99617737 657.42420271 525 654 C511.14 640.14 497.28 626.28 483 612 C482.67 667.77 482.34 723.54 482 781 C323.93 781 165.86 781 3 781 C3 715 3 649 3 581 C25.77 575.39 48.54 569.78 72 564 C72 452.46 72 340.92 72 226 C48.24 221.05 24.48 216.1 0 211 C0 141.37 0 71.74 0 0 Z M39 39 C39 85.2 39 131.4 39 179 C53.80244119 182.48323972 53.80244119 182.48323972 68.640625 185.796875 C69.73671082 186.0353717 70.83279663 186.27386841 71.96209717 186.51959229 C74.24033005 187.01442149 76.51875248 187.5083788 78.79736328 188.00146484 C82.2865389 188.75792167 85.77410075 189.52155455 89.26171875 190.28515625 C91.49209177 190.76867096 93.72255717 191.2517598 95.953125 191.734375 C96.98955139 191.96243835 98.02597778 192.19050171 99.09381104 192.42547607 C100.54252594 192.73645233 100.54252594 192.73645233 102.02050781 193.05371094 C102.86413879 193.23705994 103.70776978 193.42040894 104.57696533 193.60931396 C107.41365277 194.132652 107.41365277 194.132652 112 194 C111.67 326 111.34 458 111 594 C88.89 599.61 66.78 605.22 44 611 C43.34 611.33 42.68 611.66 42 612 C42 654.9 42 697.8 42 742 C174.33 742 306.66 742 443 742 C443 699.1 443 656.2 443 612 C433.87350627 608.95783542 424.88214158 606.02067143 415.625 603.5 C407.39952096 601.23422839 399.19434216 598.92518466 391.03759766 596.421875 C388.23429782 595.57678897 385.94908973 595 383 595 C383.33 549.46 383.66 503.92 384 457 C393.425625 466.405 402.85125 475.81 412.5625 485.5 C415.52677979 488.45517578 418.49105957 491.41035156 421.54516602 494.45507812 C425.19519043 498.10058594 425.19519043 498.10058594 426.90977478 499.81433105 C428.09354124 500.996574 429.27829141 502.17783252 430.46385193 503.35827637 C432.27198731 505.15900557 434.07685681 506.9629537 435.88110352 508.76757812 C436.39928178 509.28215828 436.91746004 509.79673843 437.45134068 510.32691193 C440.192766 513.07594093 442.80043089 515.89418614 445.33482361 518.83581543 C449.27686468 523.38318078 453.49378885 527.6194729 457.76171875 531.859375 C459.03385727 533.12932312 459.03385727 533.12932312 460.33169556 534.42492676 C462.63572578 536.72418921 464.94193269 539.02124166 467.24899673 541.31745911 C469.67682877 543.73522816 472.10135471 546.15630749 474.52612305 548.57714844 C480.68110657 554.72108483 486.84032307 560.86076959 493 567 C499.652528 573.63044551 506.30429574 580.26164349 512.95117283 586.89775467 C515.35810175 589.3005431 517.76608563 591.70225382 520.17660522 594.10144043 C522.86609403 596.7789096 525.55248465 599.45945287 528.23828125 602.140625 C529.02498199 602.92215942 529.81168274 603.70369385 530.6222229 604.50891113 C534.02880105 607.91516473 537.34904709 611.34413433 540.4942627 614.9942627 C544.40263692 619.52909115 548.60821817 623.73342611 552.85351562 627.95117188 C553.71136154 628.80755753 554.56920746 629.66394318 555.45304871 630.54627991 C557.78393779 632.87240062 560.11700368 635.19631161 562.45092583 637.5193882 C564.90678436 639.96518524 567.35933813 642.41429117 569.81213379 644.86315918 C576.03844745 651.07842481 582.26899379 657.28943934 588.5 663.5 C595.22951643 670.20743514 601.95827336 676.91562208 608.68213987 683.62872171 C611.11701463 686.05945553 613.55294484 688.48911141 615.9914093 690.91624451 C618.71203025 693.62484752 621.42955464 696.33652328 624.14648438 699.04882812 C624.94253586 699.83971329 625.73858734 700.63059845 626.5587616 701.44544983 C627.30712784 702.19374557 628.05549408 702.94204132 628.82653809 703.7130127 C629.46731041 704.35156441 630.10808273 704.99011612 630.7682724 705.64801788 C633.95069444 709.00192171 636.95542327 712.52048374 640 716 C648.58 724.58 657.16 733.16 666 742 C754.11 742 842.22 742 933 742 C933 561.16 933 380.32 933 194 C942.9 192.02 942.9 192.02 953 190 C957.07926595 189.03506423 961.13358355 188.05531094 965.1875 187 C967.2041636 186.48464493 969.22109309 185.97032925 971.23828125 185.45703125 C972.20588379 185.21033691 973.17348633 184.96364258 974.17041016 184.70947266 C979.09798755 183.47396447 984.04671203 182.32936253 989.00073242 181.20507812 C992.59708172 180.38727142 992.59708172 180.38727142 996 179 C996 132.8 996 86.6 996 39 C872.25 39 748.5 39 621 39 C621 85.2 621 131.4 621 179 C625.41914772 180.89392045 629.10207536 182.43409594 633.625 183.6484375 C634.65471924 183.92937256 635.68443848 184.21030762 636.74536133 184.49975586 C637.81939209 184.78858643 638.89342285 185.07741699 640 185.375 C648.51348598 187.70057776 656.89796966 190.17867499 665.20703125 193.15234375 C668.15147265 194.19361064 668.15147265 194.19361064 672 194 C671.67 235.58 671.34 277.16 671 320 C667.04 315.71 663.08 311.42 659 307 C656.57787914 304.5399223 654.15687721 302.09744575 651.6875 299.6875 C648.17790858 296.25943219 644.78550545 292.80052762 641.58203125 289.08203125 C637.92088919 284.84348292 633.99670046 280.92013531 630 277 C625.39197045 272.48024688 620.98982203 267.89067773 616.77734375 263 C613.67613415 259.51028722 610.33165868 256.2678338 607 253 C602.39197045 248.48024688 597.98982203 243.89067773 593.77734375 239 C590.67613415 235.51028722 587.33165868 232.2678338 584 229 C579.39197045 224.48024688 574.98982203 219.89067773 570.77734375 215 C567.67613415 211.51028722 564.33165868 208.2678338 561 205 C556.39197045 200.48024688 551.98982203 195.89067773 547.77734375 191 C544.67613415 187.51028722 541.33165868 184.2678338 538 181 C533.39197045 176.48024688 528.98982203 171.89067773 524.77734375 167 C521.67613415 163.51028722 518.33165868 160.2678338 515 157 C510.39197045 152.48024688 505.98982203 147.89067773 501.77734375 143 C498.67613415 139.51028722 495.33165868 136.2678338 492 133 C487.39197045 128.48024688 482.98982203 123.89067773 478.77734375 119 C475.67613415 115.51028722 472.33165868 112.2678338 469 109 C464.39197045 104.48024688 459.98982203 99.89067773 455.77734375 95 C452.67613415 91.51028722 449.33165868 88.2678338 446 85 C441.39197045 80.48024688 436.98982203 75.89067773 432.77734375 71 C429.67613415 67.51028722 426.33165868 64.2678338 423 61 C418.41373929 56.50159869 413.98556826 51.96262641 409.8359375 47.0546875 C409.23007812 46.37664063 408.62421875 45.69859375 408 45 C406.90686902 43.47375535 406.90686902 43.47375535 405.79165459 41.91667747 C401.69847885 37.89487952 397.21111623 38.27686101 391.72467148 38.22551215 C390.3156374 38.24262842 388.90660999 38.26030195 387.49758911 38.2784729 C385.9951016 38.27585574 384.49261676 38.27060096 382.99014652 38.2629379 C378.86458003 38.24952352 374.73994837 38.27351721 370.614501 38.30360627 C366.16466757 38.32951296 361.71488701 38.32074911 357.26499939 38.31619263 C349.55637238 38.31304623 341.84805004 38.33187383 334.13949966 38.36561966 C322.99427861 38.41437849 311.84920491 38.43000798 300.70388876 38.43754761 C282.6215194 38.45067994 264.53931243 38.49061112 246.45703125 38.54736328 C228.89160983 38.60243594 211.32623251 38.64490723 193.76074219 38.67041016 C192.67803913 38.6719865 191.59533608 38.67356284 190.47982384 38.67518695 C185.04823006 38.68301716 179.61663597 38.69059941 174.18504167 38.69805837 C129.12321689 38.7602605 84.06169245 38.87087202 39 39 Z " fill="#FEFEFE" transform="translate(4,5)"/>
<path d="M0 0 C2.25931094 2.25931094 2.5582542 3.4636274 3.375 6.5 C4.39986032 10.10253929 5.56569072 13.54013945 7 17 C8.69570812 21.11080757 9.99460275 25.23660309 11.21875 29.5078125 C12.01194843 32.03811548 12.96990463 34.43242538 14 36.875 C16 42 16 42 19 54 C39.13 54 59.26 54 80 54 C80 54.66 80 55.32 80 56 C78.15906635 57.56265298 76.31453552 59.00582635 74.375 60.4375 C73.17004149 61.34564949 71.96563212 62.25452795 70.76171875 63.1640625 C70.13700684 63.63360352 69.51229492 64.10314453 68.86865234 64.58691406 C60.57043377 70.86207595 52.46451137 77.39710286 44.375 83.9375 C43.69977295 84.48124268 43.0245459 85.02498535 42.32885742 85.58520508 C39.04764119 88.24893683 35.91598406 90.92859547 33 94 C33.60942912 95.92985887 34.21887144 97.85971357 34.82836914 99.78955078 C35.36683519 101.49488581 35.90507802 103.20029134 36.44311523 104.90576172 C37.80984921 109.23698885 39.17945035 113.5672381 40.55859375 117.89453125 C42.05406991 122.59170565 43.53426826 127.29345927 45 132 C45.25233398 132.80937012 45.50466797 133.61874023 45.76464844 134.45263672 C46.49791821 136.81995618 47.21970249 139.19044905 47.9375 141.5625 C48.16123291 142.28324707 48.38496582 143.00399414 48.61547852 143.74658203 C50.11526085 148.7694783 50.11526085 148.7694783 49 151 C37.64546666 142.51407744 26.32171587 133.99056632 15.06958008 125.36914062 C10.43646046 121.82619346 5.76830355 118.35904785 1 115 C-1.66148909 116.27242652 -4.07233827 117.65600662 -6.4765625 119.36328125 C-7.13841553 119.83161377 -7.80026855 120.29994629 -8.48217773 120.7824707 C-9.18930908 121.28738037 -9.89644043 121.79229004 -10.625 122.3125 C-11.3662915 122.8386792 -12.10758301 123.3648584 -12.87133789 123.90698242 C-19.17828534 128.3922903 -25.45098879 132.92500986 -31.71875 137.46484375 C-37.10775897 141.36591396 -42.52647751 145.21804351 -48 149 C-49.6471773 144.97805789 -48.20255321 141.74365512 -46.8125 137.875 C-46.38582031 136.63492188 -45.95914063 135.39484375 -45.51953125 134.1171875 C-44.44962101 131.15040426 -43.28744996 128.23148094 -42.09375 125.3125 C-39.68524118 119.337754 -37.66847236 113.25261469 -35.6875 107.125 C-35.31560547 106.01125 -34.94371094 104.8975 -34.56054688 103.75 C-34.21443359 102.68007813 -33.86832031 101.61015625 -33.51171875 100.5078125 C-33.19678467 99.54504395 -32.88185059 98.58227539 -32.55737305 97.59033203 C-31.96837095 94.85300733 -31.89496307 93.55260825 -33 91 C-34.41364026 89.39744177 -34.41364026 89.39744177 -36.25390625 88.00390625 C-36.93565918 87.4517041 -37.61741211 86.89950195 -38.31982422 86.33056641 C-39.05990723 85.74710449 -39.79999023 85.16364258 -40.5625 84.5625 C-41.32320801 83.95067871 -42.08391602 83.33885742 -42.86767578 82.70849609 C-44.45498951 81.43215021 -46.04520987 80.15941147 -47.63818359 78.89013672 C-49.87353922 77.10120523 -52.0905916 75.29254126 -54.30078125 73.47265625 C-61.09442652 67.88575044 -67.90106527 62.47088606 -75.15625 57.48828125 C-75.7646875 56.99714844 -76.373125 56.50601563 -77 56 C-77 55.34 -77 54.68 -77 54 C-57.53 54 -38.06 54 -18 54 C-17.34 50.7 -16.68 47.4 -16 44 C-15.09377787 41.16740853 -14.16247033 38.40531506 -13.125 35.625 C-12.58896872 34.1500573 -12.05381672 32.67479475 -11.51953125 31.19921875 C-11.13015381 30.1306665 -11.13015381 30.1306665 -10.73291016 29.04052734 C-9.70879953 26.18925597 -8.75736464 23.31587144 -7.8125 20.4375 C-5.51435531 13.48608715 -2.93481973 6.70815939 0 0 Z " fill="#FBFCFD" transform="translate(617,388)"/>
<path d="M0 0 C3.16106692 2.57004591 3.86483247 5.19997614 4.9375 9.0625 C6.12232305 13.13955268 7.3601498 17.08365188 9 21 C11.01259906 25.84281648 12.48999461 30.79057483 13.98828125 35.8125 C15.17940564 39.56523168 16.61412741 43.16593787 18.16796875 46.78125 C19 49 19 49 20 54 C40.13 54 60.26 54 81 54 C77.30066019 57.69933981 73.67574545 60.95775463 69.5625 64.125 C68.31373197 65.09626402 67.06503607 66.0676208 65.81640625 67.0390625 C65.18234863 67.53051758 64.54829102 68.02197266 63.89501953 68.52832031 C60.91962963 70.83901991 57.96029586 73.17001738 55 75.5 C53.85164749 76.40245191 52.70320944 77.30479498 51.5546875 78.20703125 C50.69182129 78.88499756 50.69182129 78.88499756 49.81152344 79.57666016 C44.54101562 83.71777344 39.27050781 87.85888672 34 92 C34.65379043 96.61917152 35.81677139 100.94825684 37.25 105.375 C37.70454216 106.8033488 38.15896602 108.23173525 38.61328125 109.66015625 C38.8448291 110.38348145 39.07637695 111.10680664 39.31494141 111.85205078 C40.578308 115.81324084 41.80832741 119.78488306 43.04052734 123.75585938 C44.22699858 127.5667788 45.44247804 131.36664996 46.68359375 135.16015625 C46.96468994 136.02729248 47.24578613 136.89442871 47.53540039 137.7878418 C48.08711379 139.48790195 48.64472228 141.1860624 49.20874023 142.88208008 C51.112253 148.775494 51.112253 148.775494 50 151 C43.43581469 146.10743952 36.90653827 141.17165739 30.40283203 136.19897461 C26.79402899 133.44256552 23.17748137 130.6964098 19.56054688 127.95068359 C17.18354749 126.1398307 14.81769698 124.3153072 12.453125 122.48828125 C11.11512645 121.47063967 9.7766213 120.45366368 8.4375 119.4375 C7.83703857 118.96650879 7.23657715 118.49551758 6.61791992 118.01025391 C3.65700438 115.61862037 3.65700438 115.61862037 0.04760742 115.2355957 C-2.17804526 116.06646712 -3.78507219 117.07421062 -5.6953125 118.484375 C-6.75576782 119.25950439 -6.75576782 119.25950439 -7.83764648 120.05029297 C-8.59247314 120.61119629 -9.3472998 121.17209961 -10.125 121.75 C-11.74344649 122.93495469 -13.36193736 124.11984877 -14.98046875 125.3046875 C-15.80981934 125.91538086 -16.63916992 126.52607422 -17.49365234 127.15527344 C-21.46371646 130.07732725 -25.44698834 132.98094589 -29.4375 135.875 C-30.18386719 136.41632568 -30.93023438 136.95765137 -31.69921875 137.51538086 C-37.3308461 141.57438629 -43.06018243 145.40209288 -49 149 C-48.10467271 144.37414232 -47.13621142 140.09824296 -45.27734375 135.765625 C-42.49453151 128.94843104 -40.29723459 121.94728581 -38.0534668 114.93896484 C-37.30699779 112.60781714 -36.55529041 110.27840774 -35.80273438 107.94921875 C-35.32261462 106.45843057 -34.84278628 104.96754851 -34.36328125 103.4765625 C-34.14037918 102.78486969 -33.91747711 102.09317688 -33.68782043 101.38052368 C-32.6943579 98.27357866 -31.73098162 95.1802513 -31 92 C-38.05928402 85.93745874 -45.19078343 80.00561023 -52.53100586 74.28588867 C-57.28971995 70.57262462 -61.9988221 66.80128626 -66.6875 63 C-67.71290894 62.17169678 -67.71290894 62.17169678 -68.7590332 61.32666016 C-69.39929443 60.8063623 -70.03955566 60.28606445 -70.69921875 59.75 C-71.26471436 59.29109375 -71.83020996 58.8321875 -72.4128418 58.359375 C-74.01494054 56.98720367 -75.50842792 55.49157208 -77 54 C-57.53 54 -38.06 54 -18 54 C-17.34 51.03 -16.68 48.06 -16 45 C-15.27486187 42.77624308 -14.50585567 40.5661673 -13.6875 38.375 C-11.83135936 33.3157848 -10.05870559 28.24405463 -8.375 23.125 C-6.6900437 18.0332727 -4.93093159 13.0028682 -3 8 C-2.43607629 6.50053466 -1.87356981 5.00053554 -1.3125 3.5 C-0.879375 2.345 -0.44625 1.19 0 0 Z " fill="#FCFDFD" transform="translate(767,532)"/>
<path d="M0 0 C1.72259917 2.58389875 2.49947251 4.21122214 3.3671875 7.09765625 C3.61098145 7.89413574 3.85477539 8.69061523 4.10595703 9.51123047 C4.35974121 10.35314941 4.61352539 11.19506836 4.875 12.0625 C6.71061377 18.02852337 8.63755325 23.85080043 11.06640625 29.60546875 C12.64619479 33.657395 13.80946312 37.83837624 15.05078125 42.00390625 C15.83149807 44.46814412 16.69059367 46.77242163 17.75 49.125 C19 52 19 52 19 55 C39.13 55 59.26 55 80 55 C74.36961451 60.63038549 74.36961451 60.63038549 71.46875 62.98046875 C70.82977783 63.49955811 70.19080566 64.01864746 69.5324707 64.5534668 C68.86175537 65.09269775 68.19104004 65.63192871 67.5 66.1875 C66.79512451 66.75702393 66.09024902 67.32654785 65.36401367 67.91333008 C59.5215628 72.61720475 53.60315538 77.21297231 47.63378906 81.75439453 C44.64363331 84.03409786 41.66658224 86.33085798 38.6875 88.625 C37.58729161 89.4714218 36.48703628 90.31778259 35.38671875 91.1640625 C34.59910156 91.76992187 33.81148438 92.37578125 33 93 C34.52990066 100.29020847 36.32172453 107.25630291 38.97265625 114.21875 C40.43479009 118.17707432 41.63543168 122.20143894 42.84765625 126.2421875 C43.74124162 129.15618454 44.66717608 132.05100823 45.62109375 134.9453125 C45.90033691 135.80125 46.17958008 136.6571875 46.46728516 137.5390625 C47.02384515 139.24185958 47.58715743 140.94246683 48.15771484 142.640625 C48.41117676 143.42179688 48.66463867 144.20296875 48.92578125 145.0078125 C49.15692627 145.70535645 49.38807129 146.40290039 49.6262207 147.12158203 C50 149 50 149 49 152 C47.95779297 151.195625 47.95779297 151.195625 46.89453125 150.375 C43.26627388 147.5790805 39.63375415 144.78876976 36 142 C35.19111328 141.37867188 34.38222656 140.75734375 33.54882812 140.1171875 C28.21221648 136.02136818 22.86068234 131.94619144 17.49267578 127.89160156 C15.2220052 126.16847172 12.96745177 124.42630204 10.71484375 122.6796875 C9.4774566 121.74360859 8.23924411 120.80861915 7 119.875 C6.45545166 119.44316406 5.91090332 119.01132813 5.34985352 118.56640625 C3.67375366 117.26146067 3.67375366 117.26146067 1 116 C-3.93492768 116.82384743 -8.22978665 120.88245892 -12.1875 123.8125 C-13.79283807 124.98715778 -15.39831084 126.16163149 -17.00390625 127.3359375 C-17.82648926 127.94018555 -18.64907227 128.54443359 -19.49658203 129.16699219 C-23.52209672 132.11448236 -27.5749193 135.02391068 -31.625 137.9375 C-33.05532603 138.96656099 -34.48503765 139.99647662 -35.9140625 141.02734375 C-36.58598633 141.51187012 -37.25791016 141.99639648 -37.95019531 142.49560547 C-40.78930078 144.57928435 -43.57247608 146.73457365 -46.34912109 148.90063477 C-48 150 -48 150 -50 150 C-48.42652915 143.33148068 -46.29777974 136.95902112 -43.875 130.5625 C-39.07985408 117.87814091 -35.07507281 104.92920849 -31 92 C-31.59135742 91.72325439 -32.18271484 91.44650879 -32.79199219 91.16137695 C-34.87537478 90.06555088 -36.51731148 88.91090403 -38.328125 87.41796875 C-38.95509277 86.90451904 -39.58206055 86.39106934 -40.22802734 85.86206055 C-40.89527832 85.30945557 -41.5625293 84.75685059 -42.25 84.1875 C-43.68482097 83.01032541 -45.11971904 81.8332448 -46.5546875 80.65625 C-47.65635254 79.74939453 -47.65635254 79.74939453 -48.78027344 78.82421875 C-52.30044438 75.931267 -55.83784537 73.05963908 -59.375 70.1875 C-60.36935059 69.37817017 -60.36935059 69.37817017 -61.38378906 68.55249023 C-66.01323054 64.78745047 -70.67638406 61.06914669 -75.375 57.390625 C-75.91125 56.93171875 -76.4475 56.4728125 -77 56 C-77 55.67 -77 55.34 -77 55 C-48.29 54.505 -48.29 54.505 -19 54 C-15.0959074 42.29549659 -15.0959074 42.29549659 -11.20703125 30.5859375 C-10.96919922 29.86792969 -10.73136719 29.14992187 -10.48632812 28.41015625 C-10.02429587 27.01468491 -9.56341719 25.61883125 -9.10351562 24.22265625 C-6.89301505 17.56070686 -4.43487461 11.01072317 -1.8125 4.5 C-1.29623047 3.21609375 -1.29623047 3.21609375 -0.76953125 1.90625 C-0.51558594 1.2771875 -0.26164062 0.648125 0 0 Z " fill="#FCFDFD" transform="translate(316,100)"/>
<path d="M0 0 C2 1 2 1 3.1484375 4.24609375 C3.56364542 5.64135412 3.97208786 7.03863942 4.375 8.4375 C5.75137569 13.04026225 7.12996987 17.56818062 9 22 C11.0641627 26.92735611 12.58317778 31.98066949 14.13354492 37.08642578 C15.61056048 41.89806372 17.31566771 46.55037133 19.30078125 51.1796875 C20 53 20 53 20 55 C39.8 55 59.6 55 80 55 C74.37188209 60.62811791 74.37188209 60.62811791 71.50390625 62.9453125 C70.86984863 63.45940674 70.23579102 63.97350098 69.58251953 64.50317383 C68.91591309 65.03837646 68.24930664 65.5735791 67.5625 66.125 C66.86237793 66.69049561 66.16225586 67.25599121 65.44091797 67.83862305 C60.29179556 71.98778612 55.10913333 76.09376431 49.89575195 80.16186523 C45.50586391 83.5873901 41.18353938 87.09008916 36.890625 90.63671875 C35 92 35 92 33 92 C35.00571249 99.90549445 37.11341086 107.64058745 40.00390625 115.27734375 C41.4701702 119.28513188 42.68895794 123.35836368 43.9140625 127.4453125 C44.71221898 130.057983 45.53830252 132.6501118 46.3984375 135.2421875 C46.63312744 135.95995361 46.86781738 136.67771973 47.10961914 137.41723633 C47.56948252 138.820786 48.03712322 140.22181725 48.51342773 141.61987305 C49.67606728 145.20584021 50.11180881 147.41347252 49 151 C40.0126897 144.28811904 31.05324269 137.54029182 22.125 130.75 C21.27075439 130.10160156 20.41650879 129.45320312 19.53637695 128.78515625 C13.61879377 124.27826274 7.78933585 119.67036265 2 115 C-1.13128027 116.16337152 -3.75137154 117.35035777 -6.390625 119.3984375 C-7.00905273 119.87176514 -7.62748047 120.34509277 -8.26464844 120.83276367 C-9.24739746 121.59617065 -9.24739746 121.59617065 -10.25 122.375 C-16.00155913 126.77014754 -21.81678472 131.04075164 -27.75 135.1875 C-34.60894257 139.98805407 -41.34404695 144.92146935 -48 150 C-48.66 149.67 -49.32 149.34 -50 149 C-49.75171951 148.39654251 -49.50343903 147.79308502 -49.24763489 147.17134094 C-46.7838327 141.10908842 -44.56558242 135.00506548 -42.51171875 128.79296875 C-42.20426224 127.86454666 -41.89680573 126.93612457 -41.58003235 125.97956848 C-40.93873891 124.03656705 -40.29936879 122.09292984 -39.66186523 120.14868164 C-38.68312759 117.17421185 -37.68827527 114.20541939 -36.69335938 111.23632812 C-36.06930951 109.33887124 -35.44622785 107.4410956 -34.82421875 105.54296875 C-34.52537277 104.65957321 -34.22652679 103.77617767 -33.91862488 102.86601257 C-31.8872366 96.96648605 -31.8872366 96.96648605 -33 91 C-34.48873902 89.20037482 -34.48873902 89.20037482 -36.46484375 87.73046875 C-37.53327515 86.86893188 -37.53327515 86.86893188 -38.62329102 85.98999023 C-39.76882446 85.09775757 -39.76882446 85.09775757 -40.9375 84.1875 C-41.71730225 83.56367432 -42.49710449 82.93984863 -43.30053711 82.29711914 C-45.52517139 80.52032639 -47.76132131 78.75903779 -50 77 C-51.68861111 75.64721911 -53.37636267 74.29336301 -55.0625 72.9375 C-55.80371094 72.34710938 -56.54492188 71.75671875 -57.30859375 71.1484375 C-61.08935576 68.13041267 -64.8603542 65.10059916 -68.625 62.0625 C-69.34953369 61.48169678 -70.07406738 60.90089355 -70.82055664 60.30249023 C-71.82590454 59.48953491 -71.82590454 59.48953491 -72.8515625 58.66015625 C-73.45822754 58.17168213 -74.06489258 57.68320801 -74.68994141 57.17993164 C-75.12226074 56.7905542 -75.55458008 56.40117676 -76 56 C-76 55.67 -76 55.34 -76 55 C-56.86 55 -37.72 55 -18 55 C-17.67 52.69 -17.34 50.38 -17 48 C-16.45467756 46.25138393 -15.85176702 44.51948098 -15.1875 42.8125 C-13.33270634 37.92014572 -11.64835895 32.99389119 -10.02734375 28.01953125 C-9.01183361 25.03478092 -7.91569869 22.09174876 -6.80053711 19.14331055 C-5.41997351 15.4470715 -4.11906458 11.72290252 -2.8125 8 C-2.53986328 7.22527344 -2.26722656 6.45054687 -1.98632812 5.65234375 C-1.32348918 3.76848571 -0.66163914 1.88427976 0 0 Z " fill="#FCFDFD" transform="translate(466,244)"/>
</svg>
